<svg xmlns="http://www.w3.org/2000/svg" height="24" viewBox="0 -960 960 960" width="24"><path d="m380-300 280-180-280-180v360ZM200-120q-33 0-56.5-23.5T120-200v-560q0-33 23.5-56.5T200-840h560q33 0 56.5 23.5T840-760v560q0 33-23.5 56.5T760-120H200Zm0-80h560v-560H200v560Zm0-560v560-560Z"/></svg>
<svg xmlns="http://www.w3.org/2000/svg" height="24" viewBox="0 -960 960 960" width="24"><path d="M520-200v-560h240v560H520Zm-320 0v-560h240v560H200Zm400-80h80v-400h-80v400Zm-320 0h80v-400h-80v400Zm0-400v400-400Zm320 0v400-400Z"/></svg>